<?xml version="1.0" encoding="iso-8859-1"?>
<!-- Generator: Adobe Illustrator 16.0.0, SVG Export Plug-In . SVG Version: 6.00 Build 0)  -->
<!DOCTYPE svg PUBLIC "-//W3C//DTD SVG 1.1//EN" "http://www.w3.org/Graphics/SVG/1.1/DTD/svg11.dtd">
<svg version="1.1" id="Capa_1" xmlns="http://www.w3.org/2000/svg" xmlns:xlink="http://www.w3.org/1999/xlink" x="0px" y="0px"
	 width="612px" height="612px" viewBox="0 0 612 612" style="enable-background:new 0 0 612 612;" xml:space="preserve">
<g>
	<g>
		<path d="M182.829,248.625v-22.95c-22.95-19.125-38.25-47.812-38.25-80.325c0-57.375,47.812-105.188,105.188-105.188
			c5.737,0,9.562,0,15.3,1.913c17.212-13.388,38.25-21.038,61.2-21.038c57.375,0,105.188,47.812,105.188,105.188
			c0,32.512-15.3,61.2-38.25,80.325v22.95c34.426-22.95,57.375-61.2,57.375-105.188C450.579,55.462,395.117,0,326.266,0
			c-24.862,0-47.812,7.65-66.937,19.125c-3.825,0-5.738,0-9.562,0c-68.85,0-124.312,55.462-124.312,124.312
			C125.454,187.425,148.404,225.675,182.829,248.625z"/>
		<path d="M274.629,82.237c13.388-15.3,30.6-24.862,51.637-24.862c19.125,0,34.426,7.65,47.812,19.125l0,0
			c11.476,11.475,19.125,28.688,19.125,47.812v53.55c11.476-15.3,19.125-34.425,19.125-53.55c0-47.812-38.25-86.062-86.062-86.062
			c-21.037,0-42.075,7.65-57.375,21.038c-5.738-1.913-11.475-1.913-19.125-1.913c-47.812,0-86.062,38.25-86.062,86.062
			c0,21.038,7.65,40.163,19.125,53.55v-53.55c0-19.125,7.65-34.425,19.125-47.812l0,0C213.429,84.15,230.642,76.5,249.767,76.5
			C259.329,76.5,266.979,78.413,274.629,82.237z"/>
		<path d="M479.266,286.875c-11.475,0-21.037,3.825-28.688,9.562l0,0c0-26.775-21.037-47.812-47.812-47.812
			c-11.475,0-21.037,3.825-28.688,9.562V124.312c0-26.775-21.037-47.812-47.812-47.812c-21.037,0-38.25,13.388-43.987,30.6
			c-7.65-7.65-19.125-11.475-32.512-11.475c-26.775,0-47.812,21.038-47.812,47.812V313.65c-38.25-34.425-80.325-61.2-107.1-34.425
			c-38.25,38.25,42.075,112.837,103.275,225.675C242.117,583.312,303.317,612,364.516,612c89.888,0,162.562-72.675,162.562-162.562
			v-114.75C527.079,307.912,506.042,286.875,479.266,286.875z M507.954,376.763v72.675c0,78.412-65.024,143.438-143.438,143.438
			c-72.675,0-114.75-40.162-149.175-95.625c-72.675-126.225-126.225-183.6-107.1-204.638
			c21.037-21.037,72.675,24.862,112.837,66.938V143.438c0-15.3,13.387-28.688,28.688-28.688c15.3,0,28.688,13.388,28.688,28.688
			V344.25h19.125V124.312c0-15.3,13.388-28.688,28.688-28.688c15.301,0,28.688,13.388,28.688,28.688v200.812h19.125v-28.688
			c0-15.3,13.388-28.688,28.688-28.688c15.301,0,28.688,13.388,28.688,28.688v47.812h19.125v-9.562
			c0-15.3,13.388-28.688,28.688-28.688c15.301,0,28.688,13.388,28.688,28.688V376.763z"/>
	</g>
</g>
<g>
</g>
<g>
</g>
<g>
</g>
<g>
</g>
<g>
</g>
<g>
</g>
<g>
</g>
<g>
</g>
<g>
</g>
<g>
</g>
<g>
</g>
<g>
</g>
<g>
</g>
<g>
</g>
<g>
</g>
</svg>
